# xmcd
#
# Track frame offsets:
#	150
#	14452
#	30729
#	48178
#	63283
#	78806
#	91562
#	107041
#	124009
#	138622
#	152174
#	168788
#	181264
#	197764
#	211776
#	225803
#	238322
#	252023
#
# Disc length: 3540 seconds
#
# Revision: 1
# Processed by: cddbd v1.5.2PL0 Copyright (c) Steve Scherf et al.
# Submitted via: audiograbber 1.82.02
#
DISCID=d70dd212
DTITLE=Various Artist - Country Radio - October 2019
DYEAR=2019
DGENRE=Country
TTITLE0=Trea Landon - Loved By A Country Boy
TTITLE1=Joe Diffie - As Long As There's A Bar
TTITLE2=Corbette Jackson - City Country (New York Ver)
TTITLE3=Tiffany Woys - Hostage
TTITLE4=Cassadee Pope - I've Been Good
TTITLE5=Heels - Take The Trailer
TTITLE6=Blake Shelton (Ft. Trace Adkins) - Hell Right
TTITLE7=Kip Moore - She's Mine
TTITLE8=Maren Morris - Bones, The
TTITLE9=John King - Try Saying Goodbye
TTITLE10=Colt Ford (Ft. Mitchell Tenpenny) - Slow Ride
TTITLE11=Ryan Langdon - Lit In The Sticks
TTITLE12=Aaron Watson - Country Radio
TTITLE13=Kolt Barber - Cowboy
TTITLE14=Marty Heddin - A Little Less Lonely
TTITLE15=Will Carter - Good Bad Idea
TTITLE16=David James - All The Time
TTITLE17=Bailey Callahan - Home Made
EXTD=
EXTT0=
EXTT1=
EXTT2=
EXTT3=
EXTT4=
EXTT5=
EXTT6=
EXTT7=
EXTT8=
EXTT9=
EXTT10=
EXTT11=
EXTT12=
EXTT13=
EXTT14=
EXTT15=
EXTT16=
EXTT17=
PLAYORDER=
